[img]http://a.imageshack.us/img816/501/mackmaineorleans.png[/img]

[IMG]http://a.imageshack.us/img696/4097/mackmaineorleans2.png[/IMG]

[CODE]General
Complete name                    : Mack Maine ft Lil Wayne and Lucci Lou - Bitch Im From New Orleans [KingPinVideos].mpg
Format                           : MPEG-PS
File size                        : 92.4 MiB
Duration                         : 4mn 31s
Overall bit rate                 : 2 857 Kbps
Writing library                  : encoded by TMPGEnc 4.0 XPress Version. 4.7.4.299

Video
ID                               : 224 (0xE0)
Format                           : MPEG VideoFormat version                   : Version 1
Format settings, BVOP            : Yes
Format settings, Matrix          : Default
Duration                         : 4mn 31s
Bit rate mode                    : Constant
Bit rate                         : 2 615 Kbps
Nominal bit rate                 : 2 700 Kbps
Width                            : 384 pixels
Height                           : 208 pixels
Display aspect ratio             : 16:9
Frame rate                       : 29.970 fps
Resolution                       : 8 bits
Scan type                        : Progressive

Bits/(Pixel*Frame)               : 1.093
Stream size                      : 84.6 MiB (92%)
Writing library                  : TMPGEnc XPress 4.7.4.299

Audio
ID                               : 192 (0xC0)
Format                           : MPEG Audio
Format version                   : Version 1
Format profile                   : Layer 2
Duration                         : 4mn 31s
Bit rate mode                    : Constant
Bit rate                         : 128 Kbps
Channel(s)                       : 2 channels
Sampling rate                    : 48.0 KHz
Stream size                      : 4.14 MiB (4%)[/CODE]